<?xml version="1.0" ?>
<!-- Uploaded to: SVG Repo, www.svgrepo.com, Generator: SVG Repo Mixer Tools -->
<svg width="800px" height="800px" viewBox="0 0 64 64" xmlns="http://www.w3.org/2000/svg">
<defs>
<style>.cls-1{fill:#ffd15c;}.cls-2{fill:#36aeb7;}.cls-3{fill:#f24463;}.cls-4{fill:#f8b64c;}</style>
</defs>
<g id="main">
<path class="cls-1" d="M34,1H30A19,19,0,0,0,11,20a1,1,0,0,0,1,1H52a1,1,0,0,0,1-1A19,19,0,0,0,34,1Z"/>
<path class="cls-2" d="M20,24H14a3,3,0,0,0,0,6h6a3,3,0,0,0,0-6Z"/>
<path class="cls-2" d="M35,24H29a3,3,0,0,0,0,6h6a3,3,0,0,0,0-6Z"/>
<path class="cls-2" d="M50,24H44a3,3,0,0,0,0,6h6a3,3,0,0,0,0-6Z"/>
<path class="cls-3" d="M49,32H15a4,4,0,0,0,0,8H49a4,4,0,0,0,0-8Z"/>
<path class="cls-1" d="M50,43H14a3,3,0,0,0-3,3v5A12,12,0,0,0,23,63H41A12,12,0,0,0,53,51V46A3,3,0,0,0,50,43Z"/>
<path class="cls-4" d="M53,46v5a12,12,0,0,1-.17,2H52c-1.94,0-2.9-1.34-3.67-2.42S47.15,49,46.28,49s-1.32.57-2.05,1.58S42.51,53,40.56,53s-2.9-1.34-3.67-2.42S35.72,49,34.85,49s-1.32.57-2,1.58S31.08,53,29.14,53s-2.9-1.34-3.67-2.42S24.29,49,23.42,49s-1.32.57-2,1.58S19.65,53,17.71,53s-2.9-1.34-3.67-2.42S12.87,49,12,49H11V46a3,3,0,0,1,3-3H50A3,3,0,0,1,53,46Z"/>
</g>
</svg>