<svg width="200" height="439" viewBox="0 0 200 439" fill="none" xmlns="http://www.w3.org/2000/svg">
<path d="M-0.473378 22.9492C1.16428 61.5039 1.14686 100.059 -0.473378 138.613H18.7865C16.8004 100.426 17.1837 61.7977 18.9085 22.9492H-0.473378ZM78.6568 22.9492C79.7892 72.6113 81.0523 122.641 78.831 174.139H98.1257C95.948 124.109 96.5142 73.6027 98.2564 22.9492H78.6568ZM127.961 22.9492C129.964 51.8744 129.529 80.6711 127.786 109.238H146.994C145.949 80.4783 145.949 51.7092 146.994 22.9492H127.961ZM178.702 56.4184C178.702 56.4184 160.67 63.5877 155.4 78.3211C154.006 82.5529 152.83 89.6305 154.093 94.0918C155.444 98.498 158.754 98.6816 160.975 97.1211C168.946 91.6133 178.702 56.4184 178.702 56.4184ZM52.3497 98.1309C52.3497 98.1309 57.5763 137.328 64.5886 146.875C66.5921 149.721 69.9023 151.098 71.688 147.518C73.4738 143.938 73.1689 136.502 72.2978 131.729C68.9005 114.562 52.3497 98.1309 52.3497 98.1309ZM166.202 104.465C164.198 104.557 162.325 105.016 160.757 106.117C158.013 108.137 154.616 113.553 154.747 119.611C154.79 125.67 158.318 130.627 161.193 132.279C171.472 137.971 192.335 117.041 192.335 117.041C192.335 117.041 177.003 104.189 166.202 104.465ZM127.786 125.762C130.487 169.549 130.879 213.061 127.874 256.113H146.951C145.208 212.602 145.426 169.09 147.038 125.762H127.786ZM157.142 143.111C156.184 143.203 155.269 143.846 154.573 145.223C152.787 148.803 153.092 156.238 153.963 161.012C157.36 178.178 173.911 194.609 173.911 194.609C173.911 194.609 168.684 155.412 161.672 145.865C160.54 144.305 159.015 143.111 157.534 143.111H157.142ZM46.0779 154.402C40.3722 154.586 35.9732 155.596 35.9732 155.596C35.9732 155.596 53.5257 187.357 64.1531 187.541C67.0712 187.449 71.1218 184.695 71.9058 178.912C72.8204 173.129 70.2507 165.969 67.7681 162.48C63.3691 156.238 55.3986 154.586 48.5605 154.402H46.0779ZM-0.347071 155.137C1.57369 193.783 1.36027 232.338 -0.434179 270.801H18.9128C17.2142 231.971 16.7699 193.324 18.7778 155.137H-0.347071ZM78.7003 184.512C80.1376 232.338 80.2247 280.623 78.7003 329.551H98.1257C95.948 280.439 96.5142 232.246 98.2564 184.512H78.7003ZM45.4246 205.258C45.4246 205.258 28.8738 221.689 25.4765 238.855C24.6054 243.629 24.3005 251.064 26.0863 254.645C27.872 258.225 31.1822 256.848 33.1857 254.002C40.198 244.455 45.4246 205.258 45.4246 205.258ZM34.2745 271.443C31.3564 271.627 27.7413 274.289 26.9138 279.705C25.9992 285.396 28.4818 292.648 30.8773 296.229C39.5447 309.08 62.5851 304.857 62.5851 304.857C62.5851 304.857 45.4681 272.178 34.8408 271.443H34.2745ZM127.569 272.637C128.788 306.143 129.137 339.832 127.656 373.613H146.776C144.773 338.73 146.036 305.408 147.038 272.637H127.569ZM-0.521289 287.324C1.20348 340.75 0.663399 393.992 -0.608398 447.051H19.0827C17.9982 394.084 17.0966 340.842 18.9607 287.324H-0.521289ZM29.7013 310.09C28.0462 310.182 26.4347 311.283 25.6072 314.037C24.3441 318.443 25.5201 325.604 26.9138 329.826C32.1839 344.514 50.2156 351.674 50.2156 351.674C50.2156 351.674 40.4593 316.516 32.4888 311.008C31.6613 310.457 30.6595 310.09 29.7013 310.09ZM186.368 327.898C186.368 327.898 163.327 332.58 155.923 348.553C153.919 352.959 152.046 361.129 153.484 366.361C154.834 371.686 159.059 372.695 161.977 371.41C172.343 366.637 186.368 327.898 186.368 327.898ZM78.9181 346.074C80.4861 379.764 79.0923 413.912 78.6132 447.051H98.2999C97.5595 414.188 95.8173 380.59 97.9515 346.074H78.9181ZM158.188 387.383C155.923 387.383 153.353 389.494 152.656 393.717C151.829 398.582 153.701 404.916 155.531 408.404C162.238 420.338 180.531 419.053 180.531 419.053C180.531 419.053 167.421 389.219 159.102 387.475C158.797 387.383 158.493 387.383 158.188 387.383ZM127.699 390.137C128.614 408.771 129.137 427.773 127.961 447.051H146.602C145.383 427.682 145.992 408.68 146.907 390.137H127.699Z" fill="#7CB342"/>
</svg>
